# xmcd
# 
# Track frame offsets:
#     150
#     26930
#     40988
#     60356
#     79777
#     99051
#     112488
#     124884
#     139863
#     166453
#     185805
#     207732
# 
# Disc length: 3100
# 
# Revision: 0
# Processed by: cddbd v1.5.2PL0 Copyright (c) Steve Scherf et al.
# Submitted via: fre:ac v1.0.27
# 
DISCID=b40c1a0c
DTITLE=Carrie Rodriguez - Seven Angels On A Bicycle
DYEAR=2006
DGENRE=Country-influenced Rock
TTITLE0=Seven Angels On A Bicycle
TTITLE1=Never Gonna Be Your Bride
TTITLE2=Dirty Leather
TTITLE3=He Ain't Jesus
TTITLE4=Waterbound
TTITLE5='50s French Movie
TTITLE6=I Don't Want To Play House Anymore
TTITLE7=Before You Say Another Word
TTITLE8=Big Kiss
TTITLE9=Got Your Name On It
TTITLE10=He's Already Gone
TTITLE11=St. Peter's
EXTD=
EXTT0=
EXTT1=
EXTT2=
EXTT3=
EXTT4=
EXTT5=
EXTT6=
EXTT7=
EXTT8=
EXTT9=
EXTT10=
EXTT11=
PLAYORDER=
